ffmpeg started on 2016-12-12 at 00:40:25
Report written to "Output/theora/results/ffmpeg/sintel1000k.log"
Command line:
Tools/ffmpeg/ffmpeg -benchmark -y -i Input/y4m/sintel.y4m -c:v libtheora -b:v 1000k -an Output/theora/encoded/sintel1000k.mkv
ffmpeg version N-82227-gdb23fde Copyright (c) 2000-2016 the FFmpeg developers
  built with gcc 5.4.0 (Ubuntu 5.4.0-6ubuntu1~16.04.2) 20160609
  configuration: --prefix=/home/jaroslav/ffmpeg_build --pkg-config-flags=--static --extra-cflags=-I/home/jaroslav/ffmpeg_build/include --extra-ldflags=-L/home/jaroslav/ffmpeg_build/lib --bindir=/home/jaroslav/bin --enable-gpl --enable-libass --enable-libfdk-aac --enable-libfreetype --enable-libmp3lame --enable-libopus --enable-libtheora --enable-libvorbis --enable-libvpx --enable-libx264 --enable-libx265 --enable-nvenc --enable-libmfx --enable-libxvid --enable-libgsm --enable-libopencore-amrnb --enable-version3 --enable-nonfree
  libavutil      55. 35.100 / 55. 35.100
  libavcodec     57. 66.101 / 57. 66.101
  libavformat    57. 57.100 / 57. 57.100
  libavdevice    57.  2.100 / 57.  2.100
  libavfilter     6. 66.100 /  6. 66.100
  libswscale      4.  3.100 /  4.  3.100
  libswresample   2.  4.100 /  2.  4.100
  libpostproc    54.  2.100 / 54.  2.100
Input #0, yuv4mpegpipe, from 'Input/y4m/sintel.y4m':
  Duration: 00:00:20.83, start: 0.000000, bitrate: 2057307 kb/s
    Stream #0:0: Video: rawvideo (I420 / 0x30323449), yuv420p(progressive), 4096x1744, SAR 1:1 DAR 256:109, 24 fps, 24 tbr, 24 tbn, 24 tbc
Output #0, matroska, to 'Output/theora/encoded/sintel1000k.mkv':
  Metadata:
    encoder         : Lavf57.57.100
    Stream #0:0: Video: theora (libtheora) (theo / 0x6F656874), yuv420p, 4096x1744 [SAR 1:1 DAR 256:109], q=2-31, 1000 kb/s, 24 fps, 1k tbn, 24 tbc
    Metadata:
      encoder         : Lavc57.66.101 libtheora
Stream mapping:
  Stream #0:0 -> #0:0 (rawvideo (native) -> theora (libtheora))
Press [q] to stop, [?] for help
frame=    3 fps=0.0 q=-0.0 size=       4kB time=00:00:00.08 bitrate= 380.5kbits/s speed=0.132x    frame=    5 fps=4.1 q=-0.0 size=       4kB time=00:00:00.16 bitrate= 190.2kbits/s speed=0.137x    frame=    7 fps=3.8 q=-0.0 size=       4kB time=00:00:00.25 bitrate= 127.3kbits/s speed=0.137x    frame=    9 fps=3.7 q=-0.0 size=       4kB time=00:00:00.33 bitrate=  95.7kbits/s speed=0.137x    frame=   11 fps=3.6 q=-0.0 size=       4kB time=00:00:00.41 bitrate=  76.5kbits/s speed=0.138x    frame=   13 fps=3.3 q=-0.0 size=     281kB time=00:00:00.50 bitrate=4591.0kbits/s speed=0.128x    frame=   16 fps=3.4 q=-0.0 size=     281kB time=00:00:00.62 bitrate=3674.3kbits/s speed=0.134x    frame=   18 fps=2.0 q=-0.0 size=     327kB time=00:00:00.70 bitrate=3777.2kbits/s speed=0.0783x    frame=   19 fps=1.5 q=-0.0 size=     327kB time=00:00:00.75 bitrate=3565.9kbits/s speed=0.0579x    frame=   20 fps=1.3 q=-0.0 size=     327kB time=00:00:00.79 bitrate=3377.1kbits/s speed=0.0526x    frame=   22 fps=1.4 q=-0.0 size=     327kB time=00:00:00.87 bitrate=3057.1kbits/s speed=0.0553x    frame=   24 fps=1.4 q=-0.0 size=     327kB time=00:00:00.95 bitrate=2792.5kbits/s speed=0.0577x    frame=   26 fps=1.5 q=-0.0 size=     327kB time=00:00:01.04 bitrate=2567.6kbits/s speed=0.0603x    frame=   28 fps=1.6 q=-0.0 size=     327kB time=00:00:01.12 bitrate=2378.3kbits/s speed=0.063x    frame=   29 fps=1.6 q=-0.0 size=     369kB time=00:00:01.16 bitrate=2588.3kbits/s speed=0.0632x    frame=   31 fps=1.6 q=-0.0 size=     369kB time=00:00:01.25 bitrate=2416.5kbits/s speed=0.065x    frame=   33 fps=1.7 q=-0.0 size=     369kB time=00:00:01.33 bitrate=2266.2kbits/s speed=0.0671x    frame=   35 fps=1.7 q=-0.0 size=     369kB time=00:00:01.41 bitrate=2131.9kbits/s speed=0.0693x    frame=   37 fps=1.8 q=-0.0 size=     369kB time=00:00:01.50 bitrate=2014.1kbits/s speed=0.0713x    frame=   39 fps=1.8 q=-0.0 size=     369kB time=00:00:01.58 bitrate=1908.5kbits/s speed=0.0732x    frame=   41 fps=1.8 q=-0.0 size=     369kB time=00:00:01.66 bitrate=1812.4kbits/s speed=0.075x    frame=   43 fps=1.9 q=-0.0 size=     439kB time=00:00:01.75 bitrate=2055.8kbits/s speed=0.0766x    frame=   46 fps=2.0 q=-0.0 size=     439kB time=00:00:01.87 bitrate=1918.8kbits/s speed=0.0795x    frame=   48 fps=2.0 q=-0.0 size=     439kB time=00:00:01.95 bitrate=1837.5kbits/s speed=0.0811x    frame=   50 fps=2.0 q=-0.0 size=     439kB time=00:00:02.04 bitrate=1762.0kbits/s speed=0.0825x    frame=   52 fps=2.1 q=-0.0 size=     439kB time=00:00:02.12 bitrate=1693.2kbits/s speed=0.0839x    frame=   54 fps=2.1 q=-0.0 size=     439kB time=00:00:02.20 bitrate=1629.6kbits/s speed=0.0851x    frame=   57 fps=2.1 q=-0.0 size=     508kB time=00:00:02.33 bitrate=1782.2kbits/s speed=0.0875x    frame=   59 fps=2.2 q=-0.0 size=     550kB time=00:00:02.41 bitrate=1862.1kbits/s speed=0.0883x    frame=   61 fps=2.2 q=-0.0 size=     550kB time=00:00:02.50 bitrate=1800.3kbits/s speed=0.0889x    frame=   63 fps=2.2 q=-0.0 size=     550kB time=00:00:02.58 bitrate=1742.5kbits/s speed=0.0899x    frame=   65 fps=2.2 q=-0.0 size=     550kB time=00:00:02.66 bitrate=1687.6kbits/s speed=0.0909x    frame=   67 fps=2.2 q=-0.0 size=     550kB time=00:00:02.75 bitrate=1636.7kbits/s speed=0.0914x    frame=   69 fps=2.2 q=-0.0 size=     579kB time=00:00:02.83 bitrate=1672.7kbits/s speed=0.0913x    frame=   71 fps=2.2 q=-0.0 size=     579kB time=00:00:02.91 bitrate=1624.5kbits/s speed=0.0918x    frame=   73 fps=2.2 q=-0.0 size=     607kB time=00:00:03.00 bitrate=1657.8kbits/s speed=0.0922x    frame=   75 fps=2.3 q=-0.0 size=     607kB time=00:00:03.08 bitrate=1613.2kbits/s speed=0.0926x    frame=   77 fps=2.3 q=-0.0 size=     607kB time=00:00:03.16 bitrate=1570.4kbits/s speed=0.0931x    frame=   79 fps=2.3 q=-0.0 size=     631kB time=00:00:03.25 bitrate=1591.2kbits/s speed=0.0937x    frame=   81 fps=2.3 q=-0.0 size=     631kB time=00:00:03.33 bitrate=1551.6kbits/s speed=0.094x    frame=   83 fps=2.3 q=-0.0 size=     659kB time=00:00:03.41 bitrate=1578.7kbits/s speed=0.0944x    frame=   85 fps=2.3 q=-0.0 size=     659kB time=00:00:03.50 bitrate=1541.2kbits/s speed=0.0947x    frame=   87 fps=2.3 q=-0.0 size=     685kB time=00:00:03.58 bitrate=1565.5kbits/s speed=0.095x    frame=   89 fps=2.3 q=-0.0 size=     685kB time=00:00:03.66 bitrate=1529.6kbits/s speed=0.0954x    frame=   91 fps=2.3 q=-0.0 size=     685kB time=00:00:03.75 bitrate=1495.8kbits/s speed=0.0956x    frame=   93 fps=2.3 q=-0.0 size=     685kB time=00:00:03.83 bitrate=1463.4kbits/s speed=0.0959x    frame=   95 fps=2.3 q=-0.0 size=     719kB time=00:00:03.91 bitrate=1502.6kbits/s speed=0.0964x    frame=   97 fps=2.3 q=-0.0 size=     719kB time=00:00:04.00 bitrate=1471.5kbits/s speed=0.0966x    frame=   99 fps=2.3 q=-0.0 size=     719kB time=00:00:04.08 bitrate=1441.6kbits/s speed=0.0969x    frame=  101 fps=2.4 q=-0.0 size=     719kB time=00:00:04.16 bitrate=1412.5kbits/s speed=0.0971x    frame=  103 fps=2.4 q=-0.0 size=     754kB time=00:00:04.25 bitrate=1452.2kbits/s speed=0.0977x    frame=  105 fps=2.4 q=-0.0 size=     754kB time=00:00:04.33 bitrate=1424.4kbits/s speed=0.0979x    frame=  107 fps=2.4 q=-0.0 size=     754kB time=00:00:04.41 bitrate=1397.3kbits/s speed=0.0982x    frame=  109 fps=2.4 q=-0.0 size=     787kB time=00:00:04.50 bitrate=1433.2kbits/s speed=0.0988x    frame=  111 fps=2.4 q=-0.0 size=     787kB time=00:00:04.58 bitrate=1407.3kbits/s speed=0.0989x    frame=  113 fps=2.4 q=-0.0 size=     787kB time=00:00:04.66 bitrate=1381.9kbits/s speed=0.0992x    frame=  115 fps=2.4 q=-0.0 size=     787kB time=00:00:04.75 bitrate=1357.8kbits/s speed=0.0995x    frame=  117 fps=2.4 q=-0.0 size=     819kB time=00:00:04.83 bitrate=1388.0kbits/s speed=0.0998x    frame=  119 fps=2.4 q=-0.0 size=     819kB time=00:00:04.91 bitrate=1364.3kbits/s speed= 0.1x    frame=  121 fps=2.4 q=-0.0 size=     819kB time=00:00:05.00 bitrate=1341.7kbits/s speed= 0.1x    frame=  123 fps=2.4 q=-0.0 size=     819kB time=00:00:05.08 bitrate=1319.8kbits/s speed= 0.1x    frame=  124 fps=2.4 q=-0.0 size=     819kB time=00:00:05.12 bitrate=1309.0kbits/s speed=0.0999x    frame=  126 fps=2.4 q=-0.0 size=     866kB time=00:00:05.20 bitrate=1361.6kbits/s speed= 0.1x    frame=  128 fps=2.4 q=-0.0 size=     866kB time=00:00:05.29 bitrate=1340.0kbits/s speed= 0.1x    frame=  130 fps=2.4 q=-0.0 size=     866kB time=00:00:05.37 bitrate=1319.3kbits/s speed=0.101x    frame=  132 fps=2.4 q=-0.0 size=     866kB time=00:00:05.45 bitrate=1299.2kbits/s speed=0.101x    frame=  134 fps=2.4 q=-0.0 size=     922kB time=00:00:05.54 bitrate=1362.2kbits/s speed=0.101x    frame=  136 fps=2.4 q=-0.0 size=     922kB time=00:00:05.62 bitrate=1342.1kbits/s speed=0.101x    frame=  138 fps=2.4 q=-0.0 size=     922kB time=00:00:05.70 bitrate=1322.6kbits/s speed=0.101x    frame=  140 fps=2.4 q=-0.0 size=     922kB time=00:00:05.79 bitrate=1303.4kbits/s speed=0.101x    frame=  142 fps=2.4 q=-0.0 size=     922kB time=00:00:05.87 bitrate=1285.0kbits/s speed=0.101x    frame=  144 fps=2.4 q=-0.0 size=     922kB time=00:00:05.95 bitrate=1267.1kbits/s speed=0.101x    frame=  146 fps=2.4 q=-0.0 size=     922kB time=00:00:06.04 bitrate=1249.5kbits/s speed=0.101x    frame=  148 fps=2.5 q=-0.0 size=     922kB time=00:00:06.12 bitrate=1232.5kbits/s speed=0.102x    frame=  150 fps=2.5 q=-0.0 size=     922kB time=00:00:06.20 bitrate=1216.1kbits/s speed=0.102x    frame=  152 fps=2.5 q=-0.0 size=     977kB time=00:00:06.29 bitrate=1272.3kbits/s speed=0.102x    frame=  154 fps=2.5 q=-0.0 size=     977kB time=00:00:06.37 bitrate=1255.8kbits/s speed=0.102x    frame=  156 fps=2.5 q=-0.0 size=     977kB time=00:00:06.45 bitrate=1239.6kbits/s speed=0.103x    frame=  158 fps=2.5 q=-0.0 size=    1031kB time=00:00:06.54 bitrate=1290.8kbits/s speed=0.103x    frame=  160 fps=2.5 q=-0.0 size=    1031kB time=00:00:06.62 bitrate=1274.6kbits/s speed=0.103x    frame=  162 fps=2.5 q=-0.0 size=    1063kB time=00:00:06.70 bitrate=1297.8kbits/s speed=0.103x    frame=  164 fps=2.5 q=-0.0 size=    1063kB time=00:00:06.79 bitrate=1281.8kbits/s speed=0.103x    frame=  166 fps=2.5 q=-0.0 size=    1063kB time=00:00:06.87 bitrate=1266.3kbits/s speed=0.103x    frame=  168 fps=2.5 q=-0.0 size=    1098kB time=00:00:06.95 bitrate=1292.3kbits/s speed=0.103x    frame=  170 fps=2.5 q=-0.0 size=    1098kB time=00:00:07.04 bitrate=1276.9kbits/s speed=0.103x    frame=  172 fps=2.5 q=-0.0 size=    1098kB time=00:00:07.12 bitrate=1262.0kbits/s speed=0.103x    frame=  174 fps=2.5 q=-0.0 size=    1098kB time=00:00:07.20 bitrate=1247.5kbits/s speed=0.103x    frame=  176 fps=2.5 q=-0.0 size=    1133kB time=00:00:07.29 bitrate=1272.4kbits/s speed=0.104x    frame=  178 fps=2.5 q=-0.0 size=    1133kB time=00:00:07.37 bitrate=1258.1kbits/s speed=0.104x    frame=  180 fps=2.5 q=-0.0 size=    1133kB time=00:00:07.45 bitrate=1244.1kbits/s speed=0.104x    frame=  182 fps=2.5 q=-0.0 size=    1133kB time=00:00:07.54 bitrate=1230.2kbits/s speed=0.104x    frame=  184 fps=2.5 q=-0.0 size=    1166kB time=00:00:07.62 bitrate=1252.7kbits/s speed=0.104x    frame=  186 fps=2.5 q=-0.0 size=    1166kB time=00:00:07.70 bitrate=1239.3kbits/s speed=0.104x    frame=  188 fps=2.5 q=-0.0 size=    1166kB time=00:00:07.79 bitrate=1225.9kbits/s speed=0.104x    frame=  190 fps=2.5 q=-0.0 size=    1166kB time=00:00:07.87 bitrate=1213.0kbits/s speed=0.104x    frame=  192 fps=2.5 q=-0.0 size=    1166kB time=00:00:07.95 bitrate=1200.3kbits/s speed=0.105x    frame=  194 fps=2.5 q=-0.0 size=    1204kB time=00:00:08.04 bitrate=1226.1kbits/s speed=0.105x    frame=  196 fps=2.5 q=-0.0 size=    1234kB time=00:00:08.12 bitrate=1244.4kbits/s speed=0.105x    frame=  198 fps=2.5 q=-0.0 size=    1234kB time=00:00:08.20 bitrate=1231.8kbits/s speed=0.105x    frame=  200 fps=2.5 q=-0.0 size=    1234kB time=00:00:08.29 bitrate=1219.3kbits/s speed=0.105x    frame=  202 fps=2.5 q=-0.0 size=    1271kB time=00:00:08.37 bitrate=1243.5kbits/s speed=0.105x    frame=  204 fps=2.5 q=-0.0 size=    1271kB time=00:00:08.45 bitrate=1231.3kbits/s speed=0.105x    frame=  206 fps=2.5 q=-0.0 size=    1271kB time=00:00:08.54 bitrate=1219.2kbits/s speed=0.105x    frame=  208 fps=2.5 q=-0.0 size=    1271kB time=00:00:08.62 bitrate=1207.5kbits/s speed=0.105x    frame=  210 fps=2.5 q=-0.0 size=    1271kB time=00:00:08.70 bitrate=1196.0kbits/s speed=0.105x    frame=  212 fps=2.5 q=-0.0 size=    1271kB time=00:00:08.79 bitrate=1184.6kbits/s speed=0.105x    frame=  214 fps=2.5 q=-0.0 size=    1315kB time=00:00:08.87 bitrate=1213.5kbits/s speed=0.106x    frame=  216 fps=2.5 q=-0.0 size=    1315kB time=00:00:08.95 bitrate=1202.3kbits/s speed=0.106x    frame=  218 fps=2.6 q=-0.0 size=    1315kB time=00:00:09.04 bitrate=1191.1kbits/s speed=0.106x    frame=  220 fps=2.6 q=-0.0 size=    1315kB time=00:00:09.12 bitrate=1180.3kbits/s speed=0.106x    frame=  222 fps=2.6 q=-0.0 size=    1315kB time=00:00:09.20 bitrate=1169.6kbits/s speed=0.106x    frame=  224 fps=2.6 q=-0.0 size=    1315kB time=00:00:09.29 bitrate=1159.0kbits/s speed=0.107x    frame=  226 fps=2.6 q=-0.0 size=    1315kB time=00:00:09.37 bitrate=1148.8kbits/s speed=0.107x    frame=  228 fps=2.6 q=-0.0 size=    1404kB time=00:00:09.45 bitrate=1215.6kbits/s speed=0.107x    frame=  231 fps=2.6 q=-0.0 size=    1404kB time=00:00:09.58 bitrate=1199.7kbits/s speed=0.107x    frame=  233 fps=2.6 q=-0.0 size=    1404kB time=00:00:09.66 bitrate=1189.3kbits/s speed=0.108x    frame=  235 fps=2.6 q=-0.0 size=    1404kB time=00:00:09.75 bitrate=1179.2kbits/s speed=0.108x    frame=  237 fps=2.6 q=-0.0 size=    1404kB time=00:00:09.83 bitrate=1169.2kbits/s speed=0.108x    frame=  239 fps=2.6 q=-0.0 size=    1404kB time=00:00:09.91 bitrate=1159.3kbits/s speed=0.108x    frame=  242 fps=2.6 q=-0.0 size=    1459kB time=00:00:10.04 bitrate=1189.8kbits/s speed=0.109x    frame=  244 fps=2.6 q=-0.0 size=    1459kB time=00:00:10.12 bitrate=1180.1kbits/s speed=0.109x    frame=  246 fps=2.6 q=-0.0 size=    1513kB time=00:00:10.20 bitrate=1213.9kbits/s speed=0.109x    frame=  248 fps=2.6 q=-0.0 size=    1513kB time=00:00:10.29 bitrate=1204.0kbits/s speed=0.109x    frame=  250 fps=2.6 q=-0.0 size=    1513kB time=00:00:10.37 bitrate=1194.3kbits/s speed=0.109x    frame=  252 fps=2.6 q=-0.0 size=    1513kB time=00:00:10.45 bitrate=1184.9kbits/s speed=0.109x    frame=  254 fps=2.6 q=-0.0 size=    1513kB time=00:00:10.54 bitrate=1175.4kbits/s speed=0.109x    frame=  256 fps=2.6 q=-0.0 size=    1513kB time=00:00:10.62 bitrate=1166.2kbits/s speed=0.109x    frame=  258 fps=2.6 q=-0.0 size=    1513kB time=00:00:10.70 bitrate=1157.2kbits/s speed=0.109x    frame=  260 fps=2.6 q=-0.0 size=    1513kB time=00:00:10.79 bitrate=1148.2kbits/s speed=0.109x    frame=  262 fps=2.6 q=-0.0 size=    1513kB time=00:00:10.87 bitrate=1139.4kbits/s speed=0.109x    frame=  264 fps=2.6 q=-0.0 size=    1513kB time=00:00:10.95 bitrate=1130.8kbits/s speed=0.109x    frame=  266 fps=2.6 q=-0.0 size=    1513kB time=00:00:11.04 bitrate=1122.2kbits/s speed=0.11x    frame=  269 fps=2.7 q=-0.0 size=    1565kB time=00:00:11.16 bitrate=1147.7kbits/s speed=0.11x    frame=  271 fps=2.7 q=-0.0 size=    1565kB time=00:00:11.25 bitrate=1139.3kbits/s speed=0.11x    frame=  273 fps=2.7 q=-0.0 size=    1565kB time=00:00:11.33 bitrate=1130.9kbits/s speed=0.11x    frame=  275 fps=2.7 q=-0.0 size=    1565kB time=00:00:11.41 bitrate=1122.6kbits/s speed=0.111x    frame=  277 fps=2.7 q=-0.0 size=    1565kB time=00:00:11.50 bitrate=1114.5kbits/s speed=0.111x    frame=  279 fps=2.7 q=-0.0 size=    1661kB time=00:00:11.58 bitrate=1174.6kbits/s speed=0.111x    frame=  282 fps=2.7 q=-0.0 size=    1661kB time=00:00:11.70 bitrate=1162.0kbits/s speed=0.111x    frame=  284 fps=2.7 q=-0.0 size=    1661kB time=00:00:11.79 bitrate=1153.8kbits/s speed=0.112x    frame=  286 fps=2.7 q=-0.0 size=    1661kB time=00:00:11.87 bitrate=1145.7kbits/s speed=0.112x    frame=  288 fps=2.7 q=-0.0 size=    1661kB time=00:00:11.95 bitrate=1137.8kbits/s speed=0.112x    frame=  290 fps=2.7 q=-0.0 size=    1661kB time=00:00:12.04 bitrate=1129.8kbits/s speed=0.112x    frame=  293 fps=2.7 q=-0.0 size=    1717kB time=00:00:12.16 bitrate=1156.0kbits/s speed=0.113x    frame=  295 fps=2.7 q=-0.0 size=    1717kB time=00:00:12.25 bitrate=1148.2kbits/s speed=0.113x    frame=  297 fps=2.7 q=-0.0 size=    1717kB time=00:00:12.33 bitrate=1140.4kbits/s speed=0.113x    frame=  299 fps=2.7 q=-0.0 size=    1717kB time=00:00:12.41 bitrate=1132.7kbits/s speed=0.113x    frame=  301 fps=2.7 q=-0.0 size=    1717kB time=00:00:12.50 bitrate=1125.2kbits/s speed=0.113x    frame=  303 fps=2.7 q=-0.0 size=    1778kB time=00:00:12.58 bitrate=1157.7kbits/s speed=0.113x    frame=  306 fps=2.7 q=-0.0 size=    1778kB time=00:00:12.70 bitrate=1146.3kbits/s speed=0.114x    frame=  308 fps=2.7 q=-0.0 size=    1778kB time=00:00:12.79 bitrate=1138.8kbits/s speed=0.114x    frame=  310 fps=2.7 q=-0.0 size=    1778kB time=00:00:12.87 bitrate=1131.5kbits/s speed=0.114x    frame=  312 fps=2.8 q=-0.0 size=    1778kB time=00:00:12.95 bitrate=1124.2kbits/s speed=0.114x    frame=  314 fps=2.8 q=-0.0 size=    1778kB time=00:00:13.04 bitrate=1117.0kbits/s speed=0.115x    frame=  317 fps=2.8 q=-0.0 size=    1843kB time=00:00:13.16 bitrate=1146.3kbits/s speed=0.115x    frame=  319 fps=2.8 q=-0.0 size=    1843kB time=00:00:13.25 bitrate=1139.1kbits/s speed=0.115x    frame=  321 fps=2.8 q=-0.0 size=    1843kB time=00:00:13.33 bitrate=1132.0kbits/s speed=0.115x    frame=  323 fps=2.8 q=-0.0 size=    1843kB time=00:00:13.41 bitrate=1124.9kbits/s speed=0.115x    frame=  325 fps=2.8 q=-0.0 size=    1843kB time=00:00:13.50 bitrate=1118.0kbits/s speed=0.116x    frame=  327 fps=2.8 q=-0.0 size=    1906kB time=00:00:13.58 bitrate=1149.6kbits/s speed=0.116x    frame=  330 fps=2.8 q=-0.0 size=    1906kB time=00:00:13.70 bitrate=1139.1kbits/s speed=0.116x    frame=  332 fps=2.8 q=-0.0 size=    1906kB time=00:00:13.79 bitrate=1132.2kbits/s speed=0.116x    frame=  334 fps=2.8 q=-0.0 size=    1906kB time=00:00:13.87 bitrate=1125.4kbits/s speed=0.116x    frame=  336 fps=2.8 q=-0.0 size=    1906kB time=00:00:13.95 bitrate=1118.7kbits/s speed=0.117x    frame=  338 fps=2.8 q=-0.0 size=    1906kB time=00:00:14.04 bitrate=1112.0kbits/s speed=0.117x    frame=  341 fps=2.8 q=-0.0 size=    1970kB time=00:00:14.16 bitrate=1139.3kbits/s speed=0.117x    frame=  343 fps=2.8 q=-0.0 size=    1970kB time=00:00:14.25 bitrate=1132.7kbits/s speed=0.117x    frame=  345 fps=2.8 q=-0.0 size=    1970kB time=00:00:14.33 bitrate=1126.1kbits/s speed=0.117x    frame=  347 fps=2.8 q=-0.0 size=    1970kB time=00:00:14.41 bitrate=1119.5kbits/s speed=0.117x    frame=  349 fps=2.8 q=-0.0 size=    1970kB time=00:00:14.50 bitrate=1113.1kbits/s speed=0.118x    frame=  351 fps=2.8 q=-0.0 size=    2034kB time=00:00:14.58 bitrate=1142.5kbits/s speed=0.118x    frame=  354 fps=2.8 q=-0.0 size=    2034kB time=00:00:14.70 bitrate=1132.8kbits/s speed=0.118x    frame=  356 fps=2.8 q=-0.0 size=    2034kB time=00:00:14.79 bitrate=1126.3kbits/s speed=0.118x    frame=  358 fps=2.8 q=-0.0 size=    2034kB time=00:00:14.87 bitrate=1120.0kbits/s speed=0.118x    frame=  360 fps=2.9 q=-0.0 size=    2034kB time=00:00:14.95 bitrate=1113.8kbits/s speed=0.118x    frame=  362 fps=2.9 q=-0.0 size=    2034kB time=00:00:15.04 bitrate=1107.6kbits/s speed=0.119x    frame=  365 fps=2.9 q=-0.0 size=    2098kB time=00:00:15.16 bitrate=1133.0kbits/s speed=0.119x    frame=  367 fps=2.9 q=-0.0 size=    2098kB time=00:00:15.25 bitrate=1126.9kbits/s speed=0.119x    frame=  369 fps=2.9 q=-0.0 size=    2098kB time=00:00:15.33 bitrate=1120.8kbits/s speed=0.119x    frame=  371 fps=2.9 q=-0.0 size=    2098kB time=00:00:15.41 bitrate=1114.6kbits/s speed=0.119x    frame=  373 fps=2.9 q=-0.0 size=    2098kB time=00:00:15.50 bitrate=1108.7kbits/s speed=0.119x    frame=  375 fps=2.9 q=-0.0 size=    2127kB time=00:00:15.58 bitrate=1118.1kbits/s speed=0.12x    frame=  378 fps=2.9 q=-0.0 size=    2127kB time=00:00:15.70 bitrate=1109.2kbits/s speed=0.12x    frame=  380 fps=2.9 q=-0.0 size=    2127kB time=00:00:15.79 bitrate=1103.3kbits/s speed=0.12x    frame=  382 fps=2.9 q=-0.0 size=    2127kB time=00:00:15.87 bitrate=1097.6kbits/s speed=0.12x    frame=  384 fps=2.9 q=-0.0 size=    2127kB time=00:00:15.95 bitrate=1091.8kbits/s speed=0.12x    frame=  386 fps=2.9 q=-0.0 size=    2127kB time=00:00:16.04 bitrate=1086.1kbits/s speed=0.12x    frame=  389 fps=2.9 q=-0.0 size=    2209kB time=00:00:16.16 bitrate=1119.5kbits/s speed=0.121x    frame=  391 fps=2.9 q=-0.0 size=    2209kB time=00:00:16.25 bitrate=1113.8kbits/s speed=0.121x    frame=  393 fps=2.9 q=-0.0 size=    2209kB time=00:00:16.33 bitrate=1108.1kbits/s speed=0.121x    frame=  395 fps=2.9 q=-0.0 size=    2209kB time=00:00:16.41 bitrate=1102.4kbits/s speed=0.121x    frame=  397 fps=2.9 q=-0.0 size=    2209kB time=00:00:16.50 bitrate=1096.9kbits/s speed=0.121x    frame=  399 fps=2.9 q=-0.0 size=    2276kB time=00:00:16.58 bitrate=1124.1kbits/s speed=0.121x    frame=  402 fps=2.9 q=-0.0 size=    2276kB time=00:00:16.70 bitrate=1115.7kbits/s speed=0.121x    frame=  404 fps=2.9 q=-0.0 size=    2276kB time=00:00:16.79 bitrate=1110.1kbits/s speed=0.122x    frame=  406 fps=2.9 q=-0.0 size=    2276kB time=00:00:16.87 bitrate=1104.6kbits/s speed=0.122x    frame=  408 fps=2.9 q=-0.0 size=    2276kB time=00:00:16.95 bitrate=1099.2kbits/s speed=0.122x    frame=  410 fps=2.9 q=-0.0 size=    2276kB time=00:00:17.04 bitrate=1093.8kbits/s speed=0.122x    frame=  413 fps=2.9 q=-0.0 size=    2315kB time=00:00:17.16 bitrate=1104.5kbits/s speed=0.122x    frame=  415 fps=2.9 q=-0.0 size=    2315kB time=00:00:17.25 bitrate=1099.2kbits/s speed=0.122x    frame=  417 fps=2.9 q=-0.0 size=    2315kB time=00:00:17.33 bitrate=1093.9kbits/s speed=0.122x    frame=  419 fps=2.9 q=-0.0 size=    2366kB time=00:00:17.41 bitrate=1112.6kbits/s speed=0.122x    frame=  421 fps=2.9 q=-0.0 size=    2366kB time=00:00:17.50 bitrate=1107.4kbits/s speed=0.122x    frame=  423 fps=2.9 q=-0.0 size=    2366kB time=00:00:17.58 bitrate=1102.1kbits/s speed=0.122x    frame=  425 fps=2.9 q=-0.0 size=    2366kB time=00:00:17.66 bitrate=1096.9kbits/s speed=0.122x    frame=  427 fps=2.9 q=-0.0 size=    2366kB time=00:00:17.75 bitrate=1091.8kbits/s speed=0.122x    frame=  429 fps=2.9 q=-0.0 size=    2366kB time=00:00:17.83 bitrate=1086.7kbits/s speed=0.122x    frame=  431 fps=2.9 q=-0.0 size=    2366kB time=00:00:17.91 bitrate=1081.6kbits/s speed=0.122x    frame=  433 fps=2.9 q=-0.0 size=    2366kB time=00:00:18.00 bitrate=1076.6kbits/s speed=0.123x    frame=  435 fps=2.9 q=-0.0 size=    2456kB time=00:00:18.08 bitrate=1112.5kbits/s speed=0.123x    frame=  438 fps=3.0 q=-0.0 size=    2456kB time=00:00:18.20 bitrate=1104.9kbits/s speed=0.123x    frame=  440 fps=3.0 q=-0.0 size=    2456kB time=00:00:18.29 bitrate=1099.8kbits/s speed=0.123x    frame=  442 fps=3.0 q=-0.0 size=    2456kB time=00:00:18.37 bitrate=1094.9kbits/s speed=0.123x    frame=  444 fps=3.0 q=-0.0 size=    2456kB time=00:00:18.45 bitrate=1089.9kbits/s speed=0.123x    frame=  446 fps=3.0 q=-0.0 size=    2456kB time=00:00:18.54 bitrate=1085.0kbits/s speed=0.123x    frame=  449 fps=3.0 q=-0.0 size=    2515kB time=00:00:18.66 bitrate=1103.5kbits/s speed=0.123x    frame=  451 fps=3.0 q=-0.0 size=    2515kB time=00:00:18.75 bitrate=1098.6kbits/s speed=0.124x    frame=  453 fps=3.0 q=-0.0 size=    2515kB time=00:00:18.83 bitrate=1093.8kbits/s speed=0.124x    frame=  455 fps=3.0 q=-0.0 size=    2515kB time=00:00:18.91 bitrate=1088.9kbits/s speed=0.124x    frame=  457 fps=3.0 q=-0.0 size=    2515kB time=00:00:19.00 bitrate=1084.2kbits/s speed=0.124x    frame=  459 fps=3.0 q=-0.0 size=    2570kB time=00:00:19.08 bitrate=1103.2kbits/s speed=0.124x    frame=  462 fps=3.0 q=-0.0 size=    2570kB time=00:00:19.20 bitrate=1096.0kbits/s speed=0.124x    frame=  464 fps=3.0 q=-0.0 size=    2570kB time=00:00:19.29 bitrate=1091.2kbits/s speed=0.124x    frame=  466 fps=3.0 q=-0.0 size=    2570kB time=00:00:19.37 bitrate=1086.5kbits/s speed=0.124x    frame=  468 fps=3.0 q=-0.0 size=    2570kB time=00:00:19.45 bitrate=1081.9kbits/s speed=0.124x    frame=  470 fps=3.0 q=-0.0 size=    2570kB time=00:00:19.54 bitrate=1077.3kbits/s speed=0.124x    frame=  473 fps=3.0 q=-0.0 size=    2642kB time=00:00:19.66 bitrate=1100.5kbits/s speed=0.125x    frame=  475 fps=3.0 q=-0.0 size=    2642kB time=00:00:19.75 bitrate=1095.9kbits/s speed=0.125x    frame=  477 fps=3.0 q=-0.0 size=    2642kB time=00:00:19.83 bitrate=1091.3kbits/s speed=0.125x    frame=  479 fps=3.0 q=-0.0 size=    2642kB time=00:00:19.91 bitrate=1086.7kbits/s speed=0.125x    frame=  481 fps=3.0 q=-0.0 size=    2642kB time=00:00:20.00 bitrate=1082.2kbits/s speed=0.125x    frame=  483 fps=3.0 q=-0.0 size=    2683kB time=00:00:20.08 bitrate=1094.5kbits/s speed=0.125x    frame=  486 fps=3.0 q=-0.0 size=    2683kB time=00:00:20.20 bitrate=1087.7kbits/s speed=0.125x    frame=  488 fps=3.0 q=-0.0 size=    2683kB time=00:00:20.29 bitrate=1083.2kbits/s speed=0.125x    frame=  490 fps=3.0 q=-0.0 size=    2683kB time=00:00:20.37 bitrate=1078.8kbits/s speed=0.125x    frame=  492 fps=3.0 q=-0.0 size=    2683kB time=00:00:20.45 bitrate=1074.5kbits/s speed=0.126x    frame=  494 fps=3.0 q=-0.0 size=    2683kB time=00:00:20.54 bitrate=1070.1kbits/s speed=0.126x    frame=  497 fps=3.0 q=-0.0 size=    2744kB time=00:00:20.66 bitrate=1087.7kbits/s speed=0.126x    frame=  499 fps=3.0 q=-0.0 size=    2744kB time=00:00:20.75 bitrate=1083.3kbits/s speed=0.126x    frame=  500 fps=3.0 q=-0.0 size=    2744kB time=00:00:20.79 bitrate=1081.1kbits/s speed=0.126x    frame=  500 fps=3.0 q=-0.0 Lsize=    2806kB time=00:00:20.79 bitrate=1105.5kbits/s speed=0.126x    
video:2795kB audio:0kB subtitle:0kB other streams:0kB global headers:3kB muxing overhead: 0.404030%
bench: utime=145.072s
bench: maxrss=225028kB
